<svg xmlns="http://www.w3.org/2000/svg" viewBox="0 0 48 48">
  <path fill="#25D366" d="M24 4C12.95 4 4 12.95 4 24c0 3.86 1.1 7.46 3 10.5L4.5 44l9.8-2.4C17.1 43.1 20.4 44 24 44c11.05 0 20-8.95 20-20S35.05 4 24 4z"/>
  <path fill="#FFFFFF" d="M17.47 14.38c-.4-.88-.82-.9-1.2-.91h-1.02c-.35 0-.93.13-1.42.66-.49.52-1.86 1.82-1.86 4.43s1.9 5.14 2.17 5.49c.26.36 3.68 5.9 9.1 8.04 4.5 1.78 5.42 1.43 6.4 1.34.97-.1 3.14-1.28 3.58-2.52.44-1.24.44-2.31.31-2.53-.13-.22-.48-.35-1.01-.62-.52-.26-3.1-1.53-3.58-1.7-.48-.18-.83-.27-1.18.26-.35.53-1.36 1.7-1.67 2.06-.3.35-.61.4-1.14.13-.52-.26-2.21-.82-4.21-2.6-1.56-1.39-2.61-3.1-2.92-3.63-.3-.53-.03-.81.23-1.08.24-.24.53-.62.79-.93.26-.31.35-.53.53-.88.17-.36.09-.66-.04-.93-.14-.26-1.18-2.88-1.66-3.93z"/>
</svg>
